<mxfile host="Electron" modified="2023-08-03T13:12:47.613Z" agent="Mozilla/5.0 (Windows NT 10.0; Win64; x64) AppleWebKit/537.36 (KHTML, like Gecko) draw.io/21.6.5 Chrome/114.0.5735.243 Electron/25.3.1 Safari/537.36" etag="Lh-R-T8kPucZPSyWlV7y" version="21.6.5" type="device">
  <diagram name="Page-1" id="Bp8VOITXGz05ZjKgMC42">
    <mxGraphModel dx="880" dy="511" grid="1" gridSize="10" guides="1" tooltips="1" connect="1" arrows="1" fold="1" page="1" pageScale="1" pageWidth="1169" pageHeight="827" math="0" shadow="0">
      <root>
        <mxCell id="0" />
        <mxCell id="1" parent="0" />
        <mxCell id="iEfwMZN6fMUn1y3hIy-U-3" value="4" style="align=right;verticalAlign=top;spacingRight=2;whiteSpace=wrap;html=1;" vertex="1" parent="1">
          <mxGeometry x="40" y="40" width="80" height="40" as="geometry" />
        </mxCell>
        <mxCell id="iEfwMZN6fMUn1y3hIy-U-4" value="w: Wheel" style="text;html=1;strokeColor=none;fillColor=none;align=center;verticalAlign=middle;spacingLeft=4;spacingRight=4;overflow=hidden;rotatable=0;points=[[0,0.5],[1,0.5]];portConstraint=eastwest;resizeWidth=1;whiteSpace=wrap;" vertex="1" parent="iEfwMZN6fMUn1y3hIy-U-3">
          <mxGeometry y="1" width="80" height="30" relative="1" as="geometry">
            <mxPoint y="-30" as="offset" />
          </mxGeometry>
        </mxCell>
        <mxCell id="iEfwMZN6fMUn1y3hIy-U-5" value="e: Engine[1..2]" style="fontStyle=0;dashed=1;html=1;whiteSpace=wrap;" vertex="1" parent="1">
          <mxGeometry x="200" y="40" width="100" height="40" as="geometry" />
        </mxCell>
        <mxCell id="iEfwMZN6fMUn1y3hIy-U-6" value="Figure 11.2 Parts and roles" style="text;html=1;align=center;verticalAlign=middle;resizable=0;points=[];autosize=1;strokeColor=none;fillColor=none;" vertex="1" parent="1">
          <mxGeometry x="40" y="90" width="170" height="30" as="geometry" />
        </mxCell>
      </root>
    </mxGraphModel>
  </diagram>
</mxfile>
